{"title":"The Prince and the Showgirl (Laurence Olivier,Merilyn Monroe, 19","uid":4489091,"size":1086846976,"categoryP":"video","categoryS":"movies","magnet":"?xt=urn:btih:054212c639b54aa18c650d6bf492bed4c0dbce71&amp;dn=The+Prince+and+the+Showgirl+%28Laurence+Olivier%2CMerilyn+Monroe%2C+19&amp;tr=udp%3A%2F%2Ftracker.openbittorrent.com%3A80&amp;tr=udp%3A%2F%2Fopen.demonii.com%3A1337&amp;tr=udp%3A%2F%2Ftracker.coppersurfer.tk%3A6969&amp;tr=udp%3A%2F%2Fexodus.desync.com%3A6969","seeders":6,"leechers":3,"uploader":"johnefp","files":-1,"time":1225901360,"description":"When Grandduke Charles, the prince-regent of Carpatha, a fictitious Balkan country which could start a European war by switching alliances..\n\nIMBD &lt;a href=&quot;\nhttp://www.imdb.com/title/tt0050861/&quot; rel=&quot;nofollow&quot; target=&quot;_NEW&quot;&gt;\nhttp://www.imdb.com/title/tt0050861/&lt;/a&gt;\n\nSUBS &lt;a href=&quot;\nhttp://www.opensubtitles.org/en/search/imdbid-50861/sublanguageid-all&quot; rel=&quot;nofollow&quot; target=&quot;_NEW&quot;&gt;\nhttp://www.opensubtitles.org/en/search/imdbid-50861/sublanguageid-all&lt;/a&gt;\n\nDirector:\nLaurence Olivier\n\n        Marilyn Monroe\t ... \tElsie Marina\n\n\tLaurence Olivier\t... \tCharles, the Prince Regent\n\tSybil Thorndike\t... \tThe Queen Dowager\n\tRichard Wattis\t... \tNorthbrook\n\tJeremy Spenser\t... \tKing Nicolas\n\n   Video\n      Format : MPEG-4 Visual\n      Format profile : Streaming Video@L1\n      Format settings, BVOP : Yes\n      Format settings, QPel : No\n      Format settings, GMC : No warppoints\n      Format settings, Matrix : Default\n      Codec ID : XVID\n      Codec ID/Hint : XviD\n      Duration : 1h 52mn\n      Bit rate : 1 205 Kbps\n      Width : 528 pixels\n      Height : 384 pixels\n      Display aspect ratio : 1.375\n      Frame rate : 25.000 fps\n      Resolution : 24 bits\n      Colorimetry : 4:2:0\n      Scan type : Progressive\n      Bits/(Pixel*Frame) : 0.238\n      Stream size : 965 MiB (93%)\n   Audio\n      Format : MPEG Audio\n      Format version : Version 1\n      Format profile : Layer 3\n      Codec ID : 55\n      Codec ID/Hint : MP3\n      Duration : 1h 52mn\n      Bit rate mode : Variable\n      Bit rate : 78.6 Kbps\n      Nominal bit rate : 96.0 Kbps\n      Channel(s) : 2 channels\n      Sampling rate : 32.0 KHz\n      Resolution : 16 bits\n      Stream size : 63.0 MiB (6%)\n      Alignment : Aligned on interleaves\n      Interleave, duration : 36 ms (0.90 video frame)\n      Interleave, preload duration : 249 ms\n\n   Enjoy  and  Seed\n\n\n      \n","torrent":{"xt":"urn:btih:054212c639b54aa18c650d6bf492bed4c0dbce71","amp;dn":"The+Prince+and+the+Showgirl+%28Laurence+Olivier%2CMerilyn+Monroe%2C+19","amp;tr":["udp%3A%2F%2Ftracker.openbittorrent.com%3A80","udp%3A%2F%2Fopen.demonii.com%3A1337","udp%3A%2F%2Ftracker.coppersurfer.tk%3A6969","udp%3A%2F%2Fexodus.desync.com%3A6969"],"infoHash":"054212c639b54aa18c650d6bf492bed4c0dbce71","infoHashBuffer":{"type":"Buffer","data":[5,66,18,198,57,181,74,161,140,101,13,107,244,146,190,212,192,219,206,113]},"announce":[],"urlList":[]}}